<svg width="58" height="57" viewBox="0 0 58 57" fill="none" xmlns="http://www.w3.org/2000/svg">
<path fill-rule="evenodd" clip-rule="evenodd" d="M10 9H34C41.732 9 48 15.268 48 23V33C48 40.732 41.732 47 34 47H24C16.268 47 10 40.732 10 33V9ZM15 17C15 16.4477 15.4477 16 16 16H25C25.5523 16 26 16.4477 26 17V32C26 32.5523 25.5523 33 25 33H16C15.4477 33 15 32.5523 15 32V17ZM33 16C32.4477 16 32 16.4477 32 17V25C32 25.5523 32.4477 26 33 26H42C42.5523 26 43 25.5523 43 25V21.5C43 18.4624 40.5376 16 37.5 16H33Z" fill="white"/>
<path d="M4 16.5C4 16.5 4.00002 16.7823 4.00002 33.8253C4.00002 50.8683 21 52.9986 21 52.9986C30.7631 52.9986 20 52.8187 36 52.9986C52 53.1786 54 35.423 54 35.423C54 35.423 54 43 54 24.2386C54 5.47714 35.5 3 35.5 3C21.1808 3 31.8192 3 17.5 3" stroke="#FCFF6B" stroke-width="4" stroke-linecap="round" stroke-linejoin="round"/>
</svg>
